<?xml version="1.0" encoding="UTF-8" standalone="no"?>
<!DOCTYPE svg PUBLIC "-//W3C//DTD SVG 1.1//EN"
 "http://www.w3.org/Graphics/SVG/1.1/DTD/svg11.dtd">
<!-- Generated by graphviz version 2.40.1 (20161225.0304)
 -->
<!-- Title: dependencies Pages: 1 -->
<svg width="684pt" height="284pt"
 viewBox="0.00 0.00 684.00 284.00" xmlns="http://www.w3.org/2000/svg" xmlns:xlink="http://www.w3.org/1999/xlink">
<g id="graph0" class="graph" transform="scale(1 1) rotate(0) translate(4 280)">
<title>dependencies</title>
<polygon fill="#ffffff" stroke="transparent" points="-4,4 -4,-280 680,-280 680,4 -4,4"/>
<text text-anchor="start" x="317.0091" y="-42.4" font-family="sans-serif" font-weight="bold" font-size="14.00" fill="#000000">Legend</text>
<polygon fill="#ffffb3" stroke="transparent" points="104,-10 104,-30 124,-30 124,-10 104,-10"/>
<text text-anchor="start" x="127.629" y="-15.4" font-family="sans-serif" font-size="14.00" fill="#000000"> &#160;Declarations</text>
<polygon fill="#8dd3c7" stroke="transparent" points="217,-10 217,-30 237,-30 237,-10 217,-10"/>
<text text-anchor="start" x="240.7251" y="-15.4" font-family="sans-serif" font-size="14.00" fill="#000000"> &#160;Module</text>
<polygon fill="#80b1d3" stroke="transparent" points="303,-10 303,-30 323,-30 323,-10 303,-10"/>
<text text-anchor="start" x="326.7812" y="-15.4" font-family="sans-serif" font-size="14.00" fill="#000000"> &#160;Bootstrap</text>
<polygon fill="#fdb462" stroke="transparent" points="400,-10 400,-30 420,-30 420,-10 400,-10"/>
<text text-anchor="start" x="423.6732" y="-15.4" font-family="sans-serif" font-size="14.00" fill="#000000"> &#160;Providers</text>
<polygon fill="#fb8072" stroke="transparent" points="496,-10 496,-30 516,-30 516,-10 496,-10"/>
<text text-anchor="start" x="519.7258" y="-15.4" font-family="sans-serif" font-size="14.00" fill="#000000"> &#160;Exports</text>
<g id="clust1" class="cluster">
<title>cluster_MyactivityModule</title>
<polygon fill="none" stroke="#000000" stroke-dasharray="1,5" points="8,-70 8,-268 668,-268 668,-70 8,-70"/>
</g>
<g id="clust2" class="cluster">
<title>cluster_MyactivityModule_declarations</title>
<polygon fill="none" stroke="#000000" points="360,-78 360,-130 660,-130 660,-78 360,-78"/>
</g>
<g id="clust6" class="cluster">
<title>cluster_MyactivityModule_exports</title>
<polygon fill="none" stroke="#000000" points="196,-208 196,-260 504,-260 504,-208 196,-208"/>
</g>
<g id="clust8" class="cluster">
<title>cluster_MyactivityModule_providers</title>
<polygon fill="none" stroke="#000000" points="16,-78 16,-130 352,-130 352,-78 16,-78"/>
</g>
<!-- MycartComponent -->
<g id="node1" class="node">
<title>MycartComponent</title>
<polygon fill="#ffffb3" stroke="#000000" points="651.7576,-122 530.2424,-122 530.2424,-86 651.7576,-86 651.7576,-122"/>
<text text-anchor="middle" x="591" y="-99.8" font-family="Times,serif" font-size="14.00" fill="#000000">MycartComponent</text>
</g>
<!-- MyactivityModule -->
<g id="node3" class="node">
<title>MyactivityModule</title>
<polygon fill="#8dd3c7" stroke="#000000" points="415.486,-187 412.486,-191 391.486,-191 388.486,-187 294.514,-187 294.514,-151 415.486,-151 415.486,-187"/>
<text text-anchor="middle" x="355" y="-164.8" font-family="Times,serif" font-size="14.00" fill="#000000">MyactivityModule</text>
</g>
<!-- MycartComponent&#45;&gt;MyactivityModule -->
<g id="edge1" class="edge">
<title>MycartComponent&#45;&gt;MyactivityModule</title>
<path fill="none" stroke="#000000" d="M591,-122.1061C591,-141.3391 591,-169 591,-169 591,-169 425.7759,-169 425.7759,-169"/>
<polygon fill="#000000" stroke="#000000" points="425.7759,-165.5001 415.7759,-169 425.7758,-172.5001 425.7759,-165.5001"/>
</g>
<!-- MywishlistComponent -->
<g id="node2" class="node">
<title>MywishlistComponent</title>
<polygon fill="#ffffb3" stroke="#000000" points="512.3356,-122 367.6644,-122 367.6644,-86 512.3356,-86 512.3356,-122"/>
<text text-anchor="middle" x="440" y="-99.8" font-family="Times,serif" font-size="14.00" fill="#000000">MywishlistComponent</text>
</g>
<!-- MywishlistComponent&#45;&gt;MyactivityModule -->
<g id="edge2" class="edge">
<title>MywishlistComponent&#45;&gt;MyactivityModule</title>
<path fill="none" stroke="#000000" d="M391.6627,-122.1061C391.6627,-122.1061 391.6627,-140.991 391.6627,-140.991"/>
<polygon fill="#000000" stroke="#000000" points="388.1628,-140.9909 391.6627,-150.991 395.1628,-140.991 388.1628,-140.9909"/>
</g>
<!-- MycartComponent  -->
<g id="node4" class="node">
<title>MycartComponent </title>
<polygon fill="#fb8072" stroke="#000000" points="495.7577,-252 370.2423,-252 370.2423,-216 495.7577,-216 495.7577,-252"/>
<text text-anchor="middle" x="433" y="-229.8" font-family="Times,serif" font-size="14.00" fill="#000000">MycartComponent </text>
</g>
<!-- MyactivityModule&#45;&gt;MycartComponent  -->
<g id="edge3" class="edge">
<title>MyactivityModule&#45;&gt;MycartComponent </title>
<path fill="none" stroke="#000000" stroke-dasharray="5,2" d="M392.9322,-187.1061C392.9322,-187.1061 392.9322,-205.991 392.9322,-205.991"/>
<polygon fill="#000000" stroke="#000000" points="389.4322,-205.9909 392.9322,-215.991 396.4322,-205.991 389.4322,-205.9909"/>
</g>
<!-- MywishlistComponent  -->
<g id="node5" class="node">
<title>MywishlistComponent </title>
<polygon fill="#fb8072" stroke="#000000" points="351.8353,-252 204.1647,-252 204.1647,-216 351.8353,-216 351.8353,-252"/>
<text text-anchor="middle" x="278" y="-229.8" font-family="Times,serif" font-size="14.00" fill="#000000">MywishlistComponent </text>
</g>
<!-- MyactivityModule&#45;&gt;MywishlistComponent  -->
<g id="edge4" class="edge">
<title>MyactivityModule&#45;&gt;MywishlistComponent </title>
<path fill="none" stroke="#000000" stroke-dasharray="5,2" d="M323.2123,-187.1061C323.2123,-187.1061 323.2123,-205.991 323.2123,-205.991"/>
<polygon fill="#000000" stroke="#000000" points="319.7124,-205.9909 323.2123,-215.991 326.7124,-205.991 319.7124,-205.9909"/>
</g>
<!-- MycartService -->
<g id="node6" class="node">
<title>MycartService</title>
<ellipse fill="#fdb462" stroke="#000000" cx="276" cy="-104" rx="67.7529" ry="18"/>
<text text-anchor="middle" x="276" y="-99.8" font-family="Times,serif" font-size="14.00" fill="#000000">MycartService</text>
</g>
<!-- MycartService&#45;&gt;MyactivityModule -->
<g id="edge5" class="edge">
<title>MycartService&#45;&gt;MyactivityModule</title>
<path fill="none" stroke="#000000" d="M319.1917,-118.104C319.1917,-118.104 319.1917,-140.7209 319.1917,-140.7209"/>
<polygon fill="#000000" stroke="#000000" points="315.6918,-140.7209 319.1917,-150.7209 322.6918,-140.7209 315.6918,-140.7209"/>
</g>
<!-- MywishlistService -->
<g id="node7" class="node">
<title>MywishlistService</title>
<ellipse fill="#fdb462" stroke="#000000" cx="107" cy="-104" rx="83.4002" ry="18"/>
<text text-anchor="middle" x="107" y="-99.8" font-family="Times,serif" font-size="14.00" fill="#000000">MywishlistService</text>
</g>
<!-- MywishlistService&#45;&gt;MyactivityModule -->
<g id="edge6" class="edge">
<title>MywishlistService&#45;&gt;MyactivityModule</title>
<path fill="none" stroke="#000000" d="M107,-122.1061C107,-141.3391 107,-169 107,-169 107,-169 284.3324,-169 284.3324,-169"/>
<polygon fill="#000000" stroke="#000000" points="284.3324,-172.5001 294.3324,-169 284.3323,-165.5001 284.3324,-172.5001"/>
</g>
</g>
</svg>
