<?xml version="1.0" encoding="UTF-8" standalone="no"?>
<!DOCTYPE svg PUBLIC "-//W3C//DTD SVG 1.1//EN"
 "http://www.w3.org/Graphics/SVG/1.1/DTD/svg11.dtd">
<!-- Generated by graphviz version 2.40.1 (20161225.0304)
 -->
<!-- Title: dependencies Pages: 1 -->
<svg width="727pt" height="284pt"
 viewBox="0.00 0.00 727.00 284.00" xmlns="http://www.w3.org/2000/svg" xmlns:xlink="http://www.w3.org/1999/xlink">
<g id="graph0" class="graph" transform="scale(1 1) rotate(0) translate(4 280)">
<title>dependencies</title>
<polygon fill="#ffffff" stroke="transparent" points="-4,4 -4,-280 723,-280 723,4 -4,4"/>
<text text-anchor="start" x="338.5091" y="-42.4" font-family="sans-serif" font-weight="bold" font-size="14.00" fill="#000000">Legend</text>
<polygon fill="#ffffb3" stroke="transparent" points="125.5,-10 125.5,-30 145.5,-30 145.5,-10 125.5,-10"/>
<text text-anchor="start" x="149.129" y="-15.4" font-family="sans-serif" font-size="14.00" fill="#000000"> &#160;Declarations</text>
<polygon fill="#8dd3c7" stroke="transparent" points="238.5,-10 238.5,-30 258.5,-30 258.5,-10 238.5,-10"/>
<text text-anchor="start" x="262.2251" y="-15.4" font-family="sans-serif" font-size="14.00" fill="#000000"> &#160;Module</text>
<polygon fill="#80b1d3" stroke="transparent" points="324.5,-10 324.5,-30 344.5,-30 344.5,-10 324.5,-10"/>
<text text-anchor="start" x="348.2812" y="-15.4" font-family="sans-serif" font-size="14.00" fill="#000000"> &#160;Bootstrap</text>
<polygon fill="#fdb462" stroke="transparent" points="421.5,-10 421.5,-30 441.5,-30 441.5,-10 421.5,-10"/>
<text text-anchor="start" x="445.1732" y="-15.4" font-family="sans-serif" font-size="14.00" fill="#000000"> &#160;Providers</text>
<polygon fill="#fb8072" stroke="transparent" points="517.5,-10 517.5,-30 537.5,-30 537.5,-10 517.5,-10"/>
<text text-anchor="start" x="541.2258" y="-15.4" font-family="sans-serif" font-size="14.00" fill="#000000"> &#160;Exports</text>
<g id="clust1" class="cluster">
<title>cluster_CategoriesModule</title>
<polygon fill="none" stroke="#000000" stroke-dasharray="1,5" points="8,-70 8,-268 711,-268 711,-70 8,-70"/>
</g>
<g id="clust2" class="cluster">
<title>cluster_CategoriesModule_declarations</title>
<polygon fill="none" stroke="#000000" points="385,-78 385,-130 703,-130 703,-78 385,-78"/>
</g>
<g id="clust6" class="cluster">
<title>cluster_CategoriesModule_exports</title>
<polygon fill="none" stroke="#000000" points="213,-208 213,-260 537,-260 537,-208 213,-208"/>
</g>
<g id="clust8" class="cluster">
<title>cluster_CategoriesModule_providers</title>
<polygon fill="none" stroke="#000000" points="16,-78 16,-130 377,-130 377,-78 16,-78"/>
</g>
<!-- CategoryComponent -->
<g id="node1" class="node">
<title>CategoryComponent</title>
<polygon fill="#ffffb3" stroke="#000000" points="695.1499,-122 562.8501,-122 562.8501,-86 695.1499,-86 695.1499,-122"/>
<text text-anchor="middle" x="629" y="-99.8" font-family="Times,serif" font-size="14.00" fill="#000000">CategoryComponent</text>
</g>
<!-- CategoriesModule -->
<g id="node3" class="node">
<title>CategoriesModule</title>
<polygon fill="#8dd3c7" stroke="#000000" points="438.9173,-187 435.9173,-191 414.9173,-191 411.9173,-187 319.0827,-187 319.0827,-151 438.9173,-151 438.9173,-187"/>
<text text-anchor="middle" x="379" y="-164.8" font-family="Times,serif" font-size="14.00" fill="#000000">CategoriesModule</text>
</g>
<!-- CategoryComponent&#45;&gt;CategoriesModule -->
<g id="edge1" class="edge">
<title>CategoryComponent&#45;&gt;CategoriesModule</title>
<path fill="none" stroke="#000000" d="M629,-122.1061C629,-141.3391 629,-169 629,-169 629,-169 448.8812,-169 448.8812,-169"/>
<polygon fill="#000000" stroke="#000000" points="448.8813,-165.5001 438.8812,-169 448.8812,-172.5001 448.8813,-165.5001"/>
</g>
<!-- SubcategoryComponent -->
<g id="node2" class="node">
<title>SubcategoryComponent</title>
<polygon fill="#ffffb3" stroke="#000000" points="544.8103,-122 393.1897,-122 393.1897,-86 544.8103,-86 544.8103,-122"/>
<text text-anchor="middle" x="469" y="-99.8" font-family="Times,serif" font-size="14.00" fill="#000000">SubcategoryComponent</text>
</g>
<!-- SubcategoryComponent&#45;&gt;CategoriesModule -->
<g id="edge2" class="edge">
<title>SubcategoryComponent&#45;&gt;CategoriesModule</title>
<path fill="none" stroke="#000000" d="M416.0267,-122.1061C416.0267,-122.1061 416.0267,-140.991 416.0267,-140.991"/>
<polygon fill="#000000" stroke="#000000" points="412.5267,-140.9909 416.0267,-150.991 419.5267,-140.991 412.5267,-140.9909"/>
</g>
<!-- CategoryComponent  -->
<g id="node4" class="node">
<title>CategoryComponent </title>
<polygon fill="#fb8072" stroke="#000000" points="529.1495,-252 392.8505,-252 392.8505,-216 529.1495,-216 529.1495,-252"/>
<text text-anchor="middle" x="461" y="-229.8" font-family="Times,serif" font-size="14.00" fill="#000000">CategoryComponent </text>
</g>
<!-- CategoriesModule&#45;&gt;CategoryComponent  -->
<g id="edge3" class="edge">
<title>CategoriesModule&#45;&gt;CategoryComponent </title>
<path fill="none" stroke="#000000" stroke-dasharray="5,2" d="M415.8168,-187.1061C415.8168,-187.1061 415.8168,-205.991 415.8168,-205.991"/>
<polygon fill="#000000" stroke="#000000" points="412.3169,-205.9909 415.8168,-215.991 419.3169,-205.991 412.3169,-205.9909"/>
</g>
<!-- SubcategoryComponent  -->
<g id="node5" class="node">
<title>SubcategoryComponent </title>
<polygon fill="#fb8072" stroke="#000000" points="375.3101,-252 220.6899,-252 220.6899,-216 375.3101,-216 375.3101,-252"/>
<text text-anchor="middle" x="298" y="-229.8" font-family="Times,serif" font-size="14.00" fill="#000000">SubcategoryComponent </text>
</g>
<!-- CategoriesModule&#45;&gt;SubcategoryComponent  -->
<g id="edge4" class="edge">
<title>CategoriesModule&#45;&gt;SubcategoryComponent </title>
<path fill="none" stroke="#000000" stroke-dasharray="5,2" d="M347.3484,-187.1061C347.3484,-187.1061 347.3484,-205.991 347.3484,-205.991"/>
<polygon fill="#000000" stroke="#000000" points="343.8484,-205.9909 347.3484,-215.991 350.8484,-205.991 343.8484,-205.9909"/>
</g>
<!-- CategoryService -->
<g id="node6" class="node">
<title>CategoryService</title>
<ellipse fill="#fdb462" stroke="#000000" cx="294" cy="-104" rx="75.279" ry="18"/>
<text text-anchor="middle" x="294" y="-99.8" font-family="Times,serif" font-size="14.00" fill="#000000">CategoryService</text>
</g>
<!-- CategoryService&#45;&gt;CategoriesModule -->
<g id="edge5" class="edge">
<title>CategoryService&#45;&gt;CategoriesModule</title>
<path fill="none" stroke="#000000" d="M344.3406,-117.468C344.3406,-117.468 344.3406,-140.8642 344.3406,-140.8642"/>
<polygon fill="#000000" stroke="#000000" points="340.8407,-140.8641 344.3406,-150.8642 347.8407,-140.8642 340.8407,-140.8641"/>
</g>
<!-- SubcategoryService -->
<g id="node7" class="node">
<title>SubcategoryService</title>
<ellipse fill="#fdb462" stroke="#000000" cx="112" cy="-104" rx="88.023" ry="18"/>
<text text-anchor="middle" x="112" y="-99.8" font-family="Times,serif" font-size="14.00" fill="#000000">SubcategoryService</text>
</g>
<!-- SubcategoryService&#45;&gt;CategoriesModule -->
<g id="edge6" class="edge">
<title>SubcategoryService&#45;&gt;CategoriesModule</title>
<path fill="none" stroke="#000000" d="M112,-122.1061C112,-141.3391 112,-169 112,-169 112,-169 309.08,-169 309.08,-169"/>
<polygon fill="#000000" stroke="#000000" points="309.08,-172.5001 319.08,-169 309.08,-165.5001 309.08,-172.5001"/>
</g>
</g>
</svg>
