<?xml version="1.0" encoding="UTF-8" standalone="no"?>
<!DOCTYPE svg PUBLIC "-//W3C//DTD SVG 1.1//EN"
 "http://www.w3.org/Graphics/SVG/1.1/DTD/svg11.dtd">
<!-- Generated by graphviz version 2.40.1 (20161225.0304)
 -->
<!-- Title: dependencies Pages: 1 -->
<svg width="794pt" height="284pt"
 viewBox="0.00 0.00 794.00 284.00" xmlns="http://www.w3.org/2000/svg" xmlns:xlink="http://www.w3.org/1999/xlink">
<g id="graph0" class="graph" transform="scale(1 1) rotate(0) translate(4 280)">
<title>dependencies</title>
<polygon fill="#ffffff" stroke="transparent" points="-4,4 -4,-280 790,-280 790,4 -4,4"/>
<text text-anchor="start" x="372.0091" y="-42.4" font-family="sans-serif" font-weight="bold" font-size="14.00" fill="#000000">Legend</text>
<polygon fill="#ffffb3" stroke="transparent" points="159,-10 159,-30 179,-30 179,-10 159,-10"/>
<text text-anchor="start" x="182.629" y="-15.4" font-family="sans-serif" font-size="14.00" fill="#000000"> &#160;Declarations</text>
<polygon fill="#8dd3c7" stroke="transparent" points="272,-10 272,-30 292,-30 292,-10 272,-10"/>
<text text-anchor="start" x="295.7251" y="-15.4" font-family="sans-serif" font-size="14.00" fill="#000000"> &#160;Module</text>
<polygon fill="#80b1d3" stroke="transparent" points="358,-10 358,-30 378,-30 378,-10 358,-10"/>
<text text-anchor="start" x="381.7812" y="-15.4" font-family="sans-serif" font-size="14.00" fill="#000000"> &#160;Bootstrap</text>
<polygon fill="#fdb462" stroke="transparent" points="455,-10 455,-30 475,-30 475,-10 455,-10"/>
<text text-anchor="start" x="478.6732" y="-15.4" font-family="sans-serif" font-size="14.00" fill="#000000"> &#160;Providers</text>
<polygon fill="#fb8072" stroke="transparent" points="551,-10 551,-30 571,-30 571,-10 551,-10"/>
<text text-anchor="start" x="574.7258" y="-15.4" font-family="sans-serif" font-size="14.00" fill="#000000"> &#160;Exports</text>
<g id="clust1" class="cluster">
<title>cluster_FilterModule</title>
<polygon fill="none" stroke="#000000" stroke-dasharray="1,5" points="8,-70 8,-268 778,-268 778,-70 8,-70"/>
</g>
<g id="clust2" class="cluster">
<title>cluster_FilterModule_declarations</title>
<polygon fill="none" stroke="#000000" points="424,-78 424,-130 770,-130 770,-78 424,-78"/>
</g>
<g id="clust6" class="cluster">
<title>cluster_FilterModule_exports</title>
<polygon fill="none" stroke="#000000" points="234,-208 234,-260 587,-260 587,-208 234,-208"/>
</g>
<g id="clust8" class="cluster">
<title>cluster_FilterModule_providers</title>
<polygon fill="none" stroke="#000000" points="16,-78 16,-130 416,-130 416,-78 16,-78"/>
</g>
<!-- CategoryfilterComponent -->
<g id="node1" class="node">
<title>CategoryfilterComponent</title>
<polygon fill="#ffffb3" stroke="#000000" points="761.8571,-122 602.1429,-122 602.1429,-86 761.8571,-86 761.8571,-122"/>
<text text-anchor="middle" x="682" y="-99.8" font-family="Times,serif" font-size="14.00" fill="#000000">CategoryfilterComponent</text>
</g>
<!-- FilterModule -->
<g id="node3" class="node">
<title>FilterModule</title>
<polygon fill="#8dd3c7" stroke="#000000" points="452.8795,-187 449.8795,-191 428.8795,-191 425.8795,-187 363.1205,-187 363.1205,-151 452.8795,-151 452.8795,-187"/>
<text text-anchor="middle" x="408" y="-164.8" font-family="Times,serif" font-size="14.00" fill="#000000">FilterModule</text>
</g>
<!-- CategoryfilterComponent&#45;&gt;FilterModule -->
<g id="edge1" class="edge">
<title>CategoryfilterComponent&#45;&gt;FilterModule</title>
<path fill="none" stroke="#000000" d="M682,-122.1061C682,-141.3391 682,-169 682,-169 682,-169 462.9387,-169 462.9387,-169"/>
<polygon fill="#000000" stroke="#000000" points="462.9387,-165.5001 452.9387,-169 462.9387,-172.5001 462.9387,-165.5001"/>
</g>
<!-- ProductfilterComponent -->
<g id="node2" class="node">
<title>ProductfilterComponent</title>
<polygon fill="#ffffb3" stroke="#000000" points="584.0884,-122 431.9116,-122 431.9116,-86 584.0884,-86 584.0884,-122"/>
<text text-anchor="middle" x="508" y="-99.8" font-family="Times,serif" font-size="14.00" fill="#000000">ProductfilterComponent</text>
</g>
<!-- ProductfilterComponent&#45;&gt;FilterModule -->
<g id="edge2" class="edge">
<title>ProductfilterComponent&#45;&gt;FilterModule</title>
<path fill="none" stroke="#000000" d="M442.4478,-122.1061C442.4478,-122.1061 442.4478,-140.991 442.4478,-140.991"/>
<polygon fill="#000000" stroke="#000000" points="438.9478,-140.9909 442.4478,-150.991 445.9478,-140.991 438.9478,-140.9909"/>
</g>
<!-- CategoryfilterComponent  -->
<g id="node4" class="node">
<title>CategoryfilterComponent </title>
<polygon fill="#fb8072" stroke="#000000" points="578.8574,-252 415.1426,-252 415.1426,-216 578.8574,-216 578.8574,-252"/>
<text text-anchor="middle" x="497" y="-229.8" font-family="Times,serif" font-size="14.00" fill="#000000">CategoryfilterComponent </text>
</g>
<!-- FilterModule&#45;&gt;CategoryfilterComponent  -->
<g id="edge3" class="edge">
<title>FilterModule&#45;&gt;CategoryfilterComponent </title>
<path fill="none" stroke="#000000" stroke-dasharray="5,2" d="M434.1306,-187.1061C434.1306,-187.1061 434.1306,-205.991 434.1306,-205.991"/>
<polygon fill="#000000" stroke="#000000" points="430.6307,-205.9909 434.1306,-215.991 437.6307,-205.991 430.6307,-205.9909"/>
</g>
<!-- ProductfilterComponent  -->
<g id="node5" class="node">
<title>ProductfilterComponent </title>
<polygon fill="#fb8072" stroke="#000000" points="397.5889,-252 242.4111,-252 242.4111,-216 397.5889,-216 397.5889,-252"/>
<text text-anchor="middle" x="320" y="-229.8" font-family="Times,serif" font-size="14.00" fill="#000000">ProductfilterComponent </text>
</g>
<!-- FilterModule&#45;&gt;ProductfilterComponent  -->
<g id="edge4" class="edge">
<title>FilterModule&#45;&gt;ProductfilterComponent </title>
<path fill="none" stroke="#000000" stroke-dasharray="5,2" d="M380.4272,-187.1061C380.4272,-187.1061 380.4272,-205.991 380.4272,-205.991"/>
<polygon fill="#000000" stroke="#000000" points="376.9273,-205.9909 380.4272,-215.991 383.9273,-205.991 376.9273,-205.9909"/>
</g>
<!-- CategoryfilterService -->
<g id="node6" class="node">
<title>CategoryfilterService</title>
<ellipse fill="#fdb462" stroke="#000000" cx="314" cy="-104" rx="94.3137" ry="18"/>
<text text-anchor="middle" x="314" y="-99.8" font-family="Times,serif" font-size="14.00" fill="#000000">CategoryfilterService</text>
</g>
<!-- CategoryfilterService&#45;&gt;FilterModule -->
<g id="edge5" class="edge">
<title>CategoryfilterService&#45;&gt;FilterModule</title>
<path fill="none" stroke="#000000" d="M385.6085,-115.922C385.6085,-115.922 385.6085,-140.7669 385.6085,-140.7669"/>
<polygon fill="#000000" stroke="#000000" points="382.1086,-140.7669 385.6085,-150.7669 389.1086,-140.7669 382.1086,-140.7669"/>
</g>
<!-- ProductfilterService -->
<g id="node7" class="node">
<title>ProductfilterService</title>
<ellipse fill="#fdb462" stroke="#000000" cx="113" cy="-104" rx="88.5966" ry="18"/>
<text text-anchor="middle" x="113" y="-99.8" font-family="Times,serif" font-size="14.00" fill="#000000">ProductfilterService</text>
</g>
<!-- ProductfilterService&#45;&gt;FilterModule -->
<g id="edge6" class="edge">
<title>ProductfilterService&#45;&gt;FilterModule</title>
<path fill="none" stroke="#000000" d="M113,-122.1061C113,-141.3391 113,-169 113,-169 113,-169 352.8747,-169 352.8747,-169"/>
<polygon fill="#000000" stroke="#000000" points="352.8748,-172.5001 362.8747,-169 352.8747,-165.5001 352.8748,-172.5001"/>
</g>
</g>
</svg>
