<?xml version="1.0" encoding="UTF-8" standalone="no"?>
<!DOCTYPE svg PUBLIC "-//W3C//DTD SVG 1.1//EN"
 "http://www.w3.org/Graphics/SVG/1.1/DTD/svg11.dtd">
<!-- Generated by graphviz version 2.40.1 (20161225.0304)
 -->
<!-- Title: dependencies Pages: 1 -->
<svg width="504pt" height="284pt"
 viewBox="0.00 0.00 504.00 284.00" xmlns="http://www.w3.org/2000/svg" xmlns:xlink="http://www.w3.org/1999/xlink">
<g id="graph0" class="graph" transform="scale(1 1) rotate(0) translate(4 280)">
<title>dependencies</title>
<polygon fill="#ffffff" stroke="transparent" points="-4,4 -4,-280 500,-280 500,4 -4,4"/>
<text text-anchor="start" x="227.0091" y="-42.4" font-family="sans-serif" font-weight="bold" font-size="14.00" fill="#000000">Legend</text>
<polygon fill="#ffffb3" stroke="transparent" points="14,-10 14,-30 34,-30 34,-10 14,-10"/>
<text text-anchor="start" x="37.629" y="-15.4" font-family="sans-serif" font-size="14.00" fill="#000000"> &#160;Declarations</text>
<polygon fill="#8dd3c7" stroke="transparent" points="127,-10 127,-30 147,-30 147,-10 127,-10"/>
<text text-anchor="start" x="150.7251" y="-15.4" font-family="sans-serif" font-size="14.00" fill="#000000"> &#160;Module</text>
<polygon fill="#80b1d3" stroke="transparent" points="213,-10 213,-30 233,-30 233,-10 213,-10"/>
<text text-anchor="start" x="236.7812" y="-15.4" font-family="sans-serif" font-size="14.00" fill="#000000"> &#160;Bootstrap</text>
<polygon fill="#fdb462" stroke="transparent" points="310,-10 310,-30 330,-30 330,-10 310,-10"/>
<text text-anchor="start" x="333.6732" y="-15.4" font-family="sans-serif" font-size="14.00" fill="#000000"> &#160;Providers</text>
<polygon fill="#fb8072" stroke="transparent" points="406,-10 406,-30 426,-30 426,-10 406,-10"/>
<text text-anchor="start" x="429.7258" y="-15.4" font-family="sans-serif" font-size="14.00" fill="#000000"> &#160;Exports</text>
<g id="clust1" class="cluster">
<title>cluster_AccountModule</title>
<polygon fill="none" stroke="#000000" stroke-dasharray="1,5" points="39,-70 39,-268 457,-268 457,-70 39,-70"/>
</g>
<g id="clust2" class="cluster">
<title>cluster_AccountModule_declarations</title>
<polygon fill="none" stroke="#000000" points="267,-78 267,-130 449,-130 449,-78 267,-78"/>
</g>
<g id="clust5" class="cluster">
<title>cluster_AccountModule_exports</title>
<polygon fill="none" stroke="#000000" points="163,-208 163,-260 347,-260 347,-208 163,-208"/>
</g>
<g id="clust7" class="cluster">
<title>cluster_AccountModule_providers</title>
<polygon fill="none" stroke="#000000" points="47,-78 47,-130 259,-130 259,-78 47,-78"/>
</g>
<!-- AccountdetailsComponent -->
<g id="node1" class="node">
<title>AccountdetailsComponent</title>
<polygon fill="#ffffb3" stroke="#000000" points="440.8047,-122 275.1953,-122 275.1953,-86 440.8047,-86 440.8047,-122"/>
<text text-anchor="middle" x="358" y="-99.8" font-family="Times,serif" font-size="14.00" fill="#000000">AccountdetailsComponent</text>
</g>
<!-- AccountModule -->
<g id="node2" class="node">
<title>AccountModule</title>
<polygon fill="#8dd3c7" stroke="#000000" points="308.4762,-187 305.4762,-191 284.4762,-191 281.4762,-187 201.5238,-187 201.5238,-151 308.4762,-151 308.4762,-187"/>
<text text-anchor="middle" x="255" y="-164.8" font-family="Times,serif" font-size="14.00" fill="#000000">AccountModule</text>
</g>
<!-- AccountdetailsComponent&#45;&gt;AccountModule -->
<g id="edge1" class="edge">
<title>AccountdetailsComponent&#45;&gt;AccountModule</title>
<path fill="none" stroke="#000000" d="M291.918,-122.1061C291.918,-122.1061 291.918,-140.991 291.918,-140.991"/>
<polygon fill="#000000" stroke="#000000" points="288.418,-140.9909 291.918,-150.991 295.418,-140.991 288.418,-140.9909"/>
</g>
<!-- AccountdetailsComponent  -->
<g id="node3" class="node">
<title>AccountdetailsComponent </title>
<polygon fill="#fb8072" stroke="#000000" points="339.3045,-252 170.6955,-252 170.6955,-216 339.3045,-216 339.3045,-252"/>
<text text-anchor="middle" x="255" y="-229.8" font-family="Times,serif" font-size="14.00" fill="#000000">AccountdetailsComponent </text>
</g>
<!-- AccountModule&#45;&gt;AccountdetailsComponent  -->
<g id="edge2" class="edge">
<title>AccountModule&#45;&gt;AccountdetailsComponent </title>
<path fill="none" stroke="#000000" stroke-dasharray="5,2" d="M255,-187.1061C255,-187.1061 255,-205.991 255,-205.991"/>
<polygon fill="#000000" stroke="#000000" points="251.5001,-205.9909 255,-215.991 258.5001,-205.991 251.5001,-205.9909"/>
</g>
<!-- AccountdetailsService -->
<g id="node4" class="node">
<title>AccountdetailsService</title>
<ellipse fill="#fdb462" stroke="#000000" cx="153" cy="-104" rx="97.8286" ry="18"/>
<text text-anchor="middle" x="153" y="-99.8" font-family="Times,serif" font-size="14.00" fill="#000000">AccountdetailsService</text>
</g>
<!-- AccountdetailsService&#45;&gt;AccountModule -->
<g id="edge3" class="edge">
<title>AccountdetailsService&#45;&gt;AccountModule</title>
<path fill="none" stroke="#000000" d="M226.2131,-116.226C226.2131,-116.226 226.2131,-140.683 226.2131,-140.683"/>
<polygon fill="#000000" stroke="#000000" points="222.7132,-140.683 226.2131,-150.683 229.7132,-140.683 222.7132,-140.683"/>
</g>
</g>
</svg>
