<?xml version="1.0" encoding="UTF-8" standalone="no"?>
<!DOCTYPE svg PUBLIC "-//W3C//DTD SVG 1.1//EN"
 "http://www.w3.org/Graphics/SVG/1.1/DTD/svg11.dtd">
<!-- Generated by graphviz version 2.40.1 (20161225.0304)
 -->
<!-- Title: dependencies Pages: 1 -->
<svg width="727pt" height="284pt"
 viewBox="0.00 0.00 727.00 284.00" xmlns="http://www.w3.org/2000/svg" xmlns:xlink="http://www.w3.org/1999/xlink">
<g id="graph0" class="graph" transform="scale(1 1) rotate(0) translate(4 280)">
<title>dependencies</title>
<polygon fill="#ffffff" stroke="transparent" points="-4,4 -4,-280 723,-280 723,4 -4,4"/>
<text text-anchor="start" x="338.5091" y="-42.4" font-family="sans-serif" font-weight="bold" font-size="14.00" fill="#000000">Legend</text>
<polygon fill="#ffffb3" stroke="transparent" points="125.5,-10 125.5,-30 145.5,-30 145.5,-10 125.5,-10"/>
<text text-anchor="start" x="149.129" y="-15.4" font-family="sans-serif" font-size="14.00" fill="#000000"> &#160;Declarations</text>
<polygon fill="#8dd3c7" stroke="transparent" points="238.5,-10 238.5,-30 258.5,-30 258.5,-10 238.5,-10"/>
<text text-anchor="start" x="262.2251" y="-15.4" font-family="sans-serif" font-size="14.00" fill="#000000"> &#160;Module</text>
<polygon fill="#80b1d3" stroke="transparent" points="324.5,-10 324.5,-30 344.5,-30 344.5,-10 324.5,-10"/>
<text text-anchor="start" x="348.2812" y="-15.4" font-family="sans-serif" font-size="14.00" fill="#000000"> &#160;Bootstrap</text>
<polygon fill="#fdb462" stroke="transparent" points="421.5,-10 421.5,-30 441.5,-30 441.5,-10 421.5,-10"/>
<text text-anchor="start" x="445.1732" y="-15.4" font-family="sans-serif" font-size="14.00" fill="#000000"> &#160;Providers</text>
<polygon fill="#fb8072" stroke="transparent" points="517.5,-10 517.5,-30 537.5,-30 537.5,-10 517.5,-10"/>
<text text-anchor="start" x="541.2258" y="-15.4" font-family="sans-serif" font-size="14.00" fill="#000000"> &#160;Exports</text>
<g id="clust1" class="cluster">
<title>cluster_AddressModule</title>
<polygon fill="none" stroke="#000000" stroke-dasharray="1,5" points="8,-70 8,-268 711,-268 711,-70 8,-70"/>
</g>
<g id="clust2" class="cluster">
<title>cluster_AddressModule_declarations</title>
<polygon fill="none" stroke="#000000" points="184,-78 184,-130 703,-130 703,-78 184,-78"/>
</g>
<g id="clust7" class="cluster">
<title>cluster_AddressModule_exports</title>
<polygon fill="none" stroke="#000000" points="95,-208 95,-260 624,-260 624,-208 95,-208"/>
</g>
<g id="clust9" class="cluster">
<title>cluster_AddressModule_providers</title>
<polygon fill="none" stroke="#000000" points="16,-78 16,-130 176,-130 176,-78 16,-78"/>
</g>
<!-- AddressaddComponent -->
<g id="node1" class="node">
<title>AddressaddComponent</title>
<polygon fill="#ffffb3" stroke="#000000" points="694.9186,-122 547.0814,-122 547.0814,-86 694.9186,-86 694.9186,-122"/>
<text text-anchor="middle" x="621" y="-99.8" font-family="Times,serif" font-size="14.00" fill="#000000">AddressaddComponent</text>
</g>
<!-- AddressModule -->
<g id="node4" class="node">
<title>AddressModule</title>
<polygon fill="#8dd3c7" stroke="#000000" points="420.9216,-187 417.9216,-191 396.9216,-191 393.9216,-187 315.0784,-187 315.0784,-151 420.9216,-151 420.9216,-187"/>
<text text-anchor="middle" x="368" y="-164.8" font-family="Times,serif" font-size="14.00" fill="#000000">AddressModule</text>
</g>
<!-- AddressaddComponent&#45;&gt;AddressModule -->
<g id="edge1" class="edge">
<title>AddressaddComponent&#45;&gt;AddressModule</title>
<path fill="none" stroke="#000000" d="M581.875,-122.0225C581.875,-139.3734 581.875,-163 581.875,-163 581.875,-163 430.868,-163 430.868,-163"/>
<polygon fill="#000000" stroke="#000000" points="430.868,-159.5001 420.868,-163 430.868,-166.5001 430.868,-159.5001"/>
</g>
<!-- AddressbookComponent -->
<g id="node2" class="node">
<title>AddressbookComponent</title>
<polygon fill="#ffffb3" stroke="#000000" points="529.7035,-122 374.2965,-122 374.2965,-86 529.7035,-86 529.7035,-122"/>
<text text-anchor="middle" x="452" y="-99.8" font-family="Times,serif" font-size="14.00" fill="#000000">AddressbookComponent</text>
</g>
<!-- AddressbookComponent&#45;&gt;AddressModule -->
<g id="edge2" class="edge">
<title>AddressbookComponent&#45;&gt;AddressModule</title>
<path fill="none" stroke="#000000" d="M397.5544,-122.1061C397.5544,-122.1061 397.5544,-140.991 397.5544,-140.991"/>
<polygon fill="#000000" stroke="#000000" points="394.0544,-140.9909 397.5544,-150.991 401.0544,-140.991 394.0544,-140.9909"/>
</g>
<!-- AddressupdateComponent -->
<g id="node3" class="node">
<title>AddressupdateComponent</title>
<polygon fill="#ffffb3" stroke="#000000" points="356.0239,-122 191.9761,-122 191.9761,-86 356.0239,-86 356.0239,-122"/>
<text text-anchor="middle" x="274" y="-99.8" font-family="Times,serif" font-size="14.00" fill="#000000">AddressupdateComponent</text>
</g>
<!-- AddressupdateComponent&#45;&gt;AddressModule -->
<g id="edge3" class="edge">
<title>AddressupdateComponent&#45;&gt;AddressModule</title>
<path fill="none" stroke="#000000" d="M335.7756,-122.1061C335.7756,-122.1061 335.7756,-140.991 335.7756,-140.991"/>
<polygon fill="#000000" stroke="#000000" points="332.2757,-140.9909 335.7756,-150.991 339.2757,-140.991 332.2757,-140.9909"/>
</g>
<!-- AddressaddComponent  -->
<g id="node5" class="node">
<title>AddressaddComponent </title>
<polygon fill="#fb8072" stroke="#000000" points="616.418,-252 465.582,-252 465.582,-216 616.418,-216 616.418,-252"/>
<text text-anchor="middle" x="541" y="-229.8" font-family="Times,serif" font-size="14.00" fill="#000000">AddressaddComponent </text>
</g>
<!-- AddressModule&#45;&gt;AddressaddComponent  -->
<g id="edge4" class="edge">
<title>AddressModule&#45;&gt;AddressaddComponent </title>
<path fill="none" stroke="#000000" stroke-dasharray="5,2" d="M421.0755,-175C456.8584,-175 497.5714,-175 497.5714,-175 497.5714,-175 497.5714,-205.9775 497.5714,-205.9775"/>
<polygon fill="#000000" stroke="#000000" points="494.0714,-205.9774 497.5714,-215.9775 501.0714,-205.9775 494.0714,-205.9774"/>
</g>
<!-- AddressbookComponent  -->
<g id="node6" class="node">
<title>AddressbookComponent </title>
<polygon fill="#fb8072" stroke="#000000" points="447.2037,-252 288.7963,-252 288.7963,-216 447.2037,-216 447.2037,-252"/>
<text text-anchor="middle" x="368" y="-229.8" font-family="Times,serif" font-size="14.00" fill="#000000">AddressbookComponent </text>
</g>
<!-- AddressModule&#45;&gt;AddressbookComponent  -->
<g id="edge5" class="edge">
<title>AddressModule&#45;&gt;AddressbookComponent </title>
<path fill="none" stroke="#000000" stroke-dasharray="5,2" d="M368,-187.1061C368,-187.1061 368,-205.991 368,-205.991"/>
<polygon fill="#000000" stroke="#000000" points="364.5001,-205.9909 368,-215.991 371.5001,-205.991 364.5001,-205.9909"/>
</g>
<!-- AddressupdateComponent  -->
<g id="node7" class="node">
<title>AddressupdateComponent </title>
<polygon fill="#fb8072" stroke="#000000" points="271.0232,-252 102.9768,-252 102.9768,-216 271.0232,-216 271.0232,-252"/>
<text text-anchor="middle" x="187" y="-229.8" font-family="Times,serif" font-size="14.00" fill="#000000">AddressupdateComponent </text>
</g>
<!-- AddressModule&#45;&gt;AddressupdateComponent  -->
<g id="edge6" class="edge">
<title>AddressModule&#45;&gt;AddressupdateComponent </title>
<path fill="none" stroke="#000000" stroke-dasharray="5,2" d="M315.1772,-175C276.731,-175 231.375,-175 231.375,-175 231.375,-175 231.375,-205.9775 231.375,-205.9775"/>
<polygon fill="#000000" stroke="#000000" points="227.8751,-205.9774 231.375,-215.9775 234.8751,-205.9775 227.8751,-205.9774"/>
</g>
<!-- AddressService -->
<g id="node8" class="node">
<title>AddressService</title>
<ellipse fill="#fdb462" stroke="#000000" cx="96" cy="-104" rx="71.766" ry="18"/>
<text text-anchor="middle" x="96" y="-99.8" font-family="Times,serif" font-size="14.00" fill="#000000">AddressService</text>
</g>
<!-- AddressService&#45;&gt;AddressModule -->
<g id="edge7" class="edge">
<title>AddressService&#45;&gt;AddressModule</title>
<path fill="none" stroke="#000000" d="M135.3106,-119.194C135.3106,-136.6752 135.3106,-163 135.3106,-163 135.3106,-163 305.1992,-163 305.1992,-163"/>
<polygon fill="#000000" stroke="#000000" points="305.1992,-166.5001 315.1992,-163 305.1991,-159.5001 305.1992,-166.5001"/>
</g>
</g>
</svg>
