<?xml version="1.0" encoding="UTF-8" standalone="no"?>
<!DOCTYPE svg PUBLIC "-//W3C//DTD SVG 1.1//EN"
 "http://www.w3.org/Graphics/SVG/1.1/DTD/svg11.dtd">
<!-- Generated by graphviz version 2.40.1 (20161225.0304)
 -->
<!-- Title: dependencies Pages: 1 -->
<svg width="1781pt" height="284pt"
 viewBox="0.00 0.00 1781.00 284.00" xmlns="http://www.w3.org/2000/svg" xmlns:xlink="http://www.w3.org/1999/xlink">
<g id="graph0" class="graph" transform="scale(1 1) rotate(0) translate(4 280)">
<title>dependencies</title>
<polygon fill="#ffffff" stroke="transparent" points="-4,4 -4,-280 1777,-280 1777,4 -4,4"/>
<text text-anchor="start" x="865.5091" y="-42.4" font-family="sans-serif" font-weight="bold" font-size="14.00" fill="#000000">Legend</text>
<polygon fill="#ffffb3" stroke="transparent" points="652.5,-10 652.5,-30 672.5,-30 672.5,-10 652.5,-10"/>
<text text-anchor="start" x="676.129" y="-15.4" font-family="sans-serif" font-size="14.00" fill="#000000"> &#160;Declarations</text>
<polygon fill="#8dd3c7" stroke="transparent" points="765.5,-10 765.5,-30 785.5,-30 785.5,-10 765.5,-10"/>
<text text-anchor="start" x="789.2251" y="-15.4" font-family="sans-serif" font-size="14.00" fill="#000000"> &#160;Module</text>
<polygon fill="#80b1d3" stroke="transparent" points="851.5,-10 851.5,-30 871.5,-30 871.5,-10 851.5,-10"/>
<text text-anchor="start" x="875.2812" y="-15.4" font-family="sans-serif" font-size="14.00" fill="#000000"> &#160;Bootstrap</text>
<polygon fill="#fdb462" stroke="transparent" points="948.5,-10 948.5,-30 968.5,-30 968.5,-10 948.5,-10"/>
<text text-anchor="start" x="972.1732" y="-15.4" font-family="sans-serif" font-size="14.00" fill="#000000"> &#160;Providers</text>
<polygon fill="#fb8072" stroke="transparent" points="1044.5,-10 1044.5,-30 1064.5,-30 1064.5,-10 1044.5,-10"/>
<text text-anchor="start" x="1068.2258" y="-15.4" font-family="sans-serif" font-size="14.00" fill="#000000"> &#160;Exports</text>
<g id="clust1" class="cluster">
<title>cluster_AppModule</title>
<polygon fill="none" stroke="#000000" stroke-dasharray="1,5" points="8,-70 8,-268 1765,-268 1765,-70 8,-70"/>
</g>
<g id="clust2" class="cluster">
<title>cluster_AppModule_declarations</title>
<polygon fill="none" stroke="#000000" points="1359,-78 1359,-130 1757,-130 1757,-78 1359,-78"/>
</g>
<g id="clust6" class="cluster">
<title>cluster_AppModule_imports</title>
<polygon fill="none" stroke="#000000" points="16,-78 16,-130 1351,-130 1351,-78 16,-78"/>
</g>
<g id="clust8" class="cluster">
<title>cluster_AppModule_bootstrap</title>
<polygon fill="none" stroke="#000000" points="648,-208 648,-260 1055,-260 1055,-208 648,-208"/>
</g>
<!-- AppComponent -->
<g id="node1" class="node">
<title>AppComponent</title>
<polygon fill="#ffffb3" stroke="#000000" points="1748.9399,-122 1643.0601,-122 1643.0601,-86 1748.9399,-86 1748.9399,-122"/>
<text text-anchor="middle" x="1696" y="-99.8" font-family="Times,serif" font-size="14.00" fill="#000000">AppComponent</text>
</g>
<!-- AppModule -->
<g id="node4" class="node">
<title>AppModule</title>
<polygon fill="#8dd3c7" stroke="#000000" points="899.6571,-187 896.6571,-191 875.6571,-191 872.6571,-187 816.3429,-187 816.3429,-151 899.6571,-151 899.6571,-187"/>
<text text-anchor="middle" x="858" y="-164.8" font-family="Times,serif" font-size="14.00" fill="#000000">AppModule</text>
</g>
<!-- AppComponent&#45;&gt;AppModule -->
<g id="edge1" class="edge">
<title>AppComponent&#45;&gt;AppModule</title>
<path fill="none" stroke="#000000" d="M1696,-122.2921C1696,-144.2057 1696,-178 1696,-178 1696,-178 909.8433,-178 909.8433,-178"/>
<polygon fill="#000000" stroke="#000000" points="909.8433,-174.5001 899.8433,-178 909.8432,-181.5001 909.8433,-174.5001"/>
</g>
<!-- FooterComponent -->
<g id="node2" class="node">
<title>FooterComponent</title>
<polygon fill="#ffffb3" stroke="#000000" points="1624.8809,-122 1507.1191,-122 1507.1191,-86 1624.8809,-86 1624.8809,-122"/>
<text text-anchor="middle" x="1566" y="-99.8" font-family="Times,serif" font-size="14.00" fill="#000000">FooterComponent</text>
</g>
<!-- FooterComponent&#45;&gt;AppModule -->
<g id="edge2" class="edge">
<title>FooterComponent&#45;&gt;AppModule</title>
<path fill="none" stroke="#000000" d="M1566,-122.0267C1566,-142.7672 1566,-174 1566,-174 1566,-174 909.9065,-174 909.9065,-174"/>
<polygon fill="#000000" stroke="#000000" points="909.9066,-170.5001 899.9065,-174 909.9065,-177.5001 909.9066,-170.5001"/>
</g>
<!-- HeaderComponent -->
<g id="node3" class="node">
<title>HeaderComponent</title>
<polygon fill="#ffffb3" stroke="#000000" points="1488.7437,-122 1367.2563,-122 1367.2563,-86 1488.7437,-86 1488.7437,-122"/>
<text text-anchor="middle" x="1428" y="-99.8" font-family="Times,serif" font-size="14.00" fill="#000000">HeaderComponent</text>
</g>
<!-- HeaderComponent&#45;&gt;AppModule -->
<g id="edge3" class="edge">
<title>HeaderComponent&#45;&gt;AppModule</title>
<path fill="none" stroke="#000000" d="M1428,-122.1061C1428,-141.3391 1428,-169 1428,-169 1428,-169 909.9135,-169 909.9135,-169"/>
<polygon fill="#000000" stroke="#000000" points="909.9135,-165.5001 899.9135,-169 909.9134,-172.5001 909.9135,-165.5001"/>
</g>
<!-- AppComponent  -->
<g id="node16" class="node">
<title>AppComponent </title>
<polygon fill="#80b1d3" stroke="#000000" points="1047.439,-252 938.561,-252 938.561,-216 1047.439,-216 1047.439,-252"/>
<text text-anchor="middle" x="993" y="-229.8" font-family="Times,serif" font-size="14.00" fill="#000000">AppComponent </text>
</g>
<!-- AppModule&#45;&gt;AppComponent  -->
<g id="edge15" class="edge">
<title>AppModule&#45;&gt;AppComponent </title>
<path fill="none" stroke="#000000" stroke-dasharray="1,5" d="M899.6838,-183C923.327,-183 948.2351,-183 948.2351,-183 948.2351,-183 948.2351,-205.8757 948.2351,-205.8757"/>
<polygon fill="#000000" stroke="#000000" points="944.7352,-205.8757 948.2351,-215.8757 951.7352,-205.8757 944.7352,-205.8757"/>
</g>
<!-- HeaderComponent  -->
<g id="node17" class="node">
<title>HeaderComponent </title>
<polygon fill="#80b1d3" stroke="#000000" points="920.7436,-252 795.2564,-252 795.2564,-216 920.7436,-216 920.7436,-252"/>
<text text-anchor="middle" x="858" y="-229.8" font-family="Times,serif" font-size="14.00" fill="#000000">HeaderComponent </text>
</g>
<!-- AppModule&#45;&gt;HeaderComponent  -->
<g id="edge16" class="edge">
<title>AppModule&#45;&gt;HeaderComponent </title>
<path fill="none" stroke="#000000" stroke-dasharray="1,5" d="M858,-187.1061C858,-187.1061 858,-205.991 858,-205.991"/>
<polygon fill="#000000" stroke="#000000" points="854.5001,-205.9909 858,-215.991 861.5001,-205.991 854.5001,-205.9909"/>
</g>
<!-- FooterComponent  -->
<g id="node18" class="node">
<title>FooterComponent </title>
<polygon fill="#80b1d3" stroke="#000000" points="777.8814,-252 656.1186,-252 656.1186,-216 777.8814,-216 777.8814,-252"/>
<text text-anchor="middle" x="717" y="-229.8" font-family="Times,serif" font-size="14.00" fill="#000000">FooterComponent </text>
</g>
<!-- AppModule&#45;&gt;FooterComponent  -->
<g id="edge17" class="edge">
<title>AppModule&#45;&gt;FooterComponent </title>
<path fill="none" stroke="#000000" stroke-dasharray="1,5" d="M816.1566,-183C792.6508,-183 767.9889,-183 767.9889,-183 767.9889,-183 767.9889,-205.8757 767.9889,-205.8757"/>
<polygon fill="#000000" stroke="#000000" points="764.489,-205.8757 767.9889,-215.8757 771.489,-205.8757 764.489,-205.8757"/>
</g>
<!-- AccountModule -->
<g id="node5" class="node">
<title>AccountModule</title>
<polygon fill="#8dd3c7" stroke="#000000" points="1343.4762,-122 1340.4762,-126 1319.4762,-126 1316.4762,-122 1236.5238,-122 1236.5238,-86 1343.4762,-86 1343.4762,-122"/>
<text text-anchor="middle" x="1290" y="-99.8" font-family="Times,serif" font-size="14.00" fill="#000000">AccountModule</text>
</g>
<!-- AccountModule&#45;&gt;AppModule -->
<g id="edge4" class="edge">
<title>AccountModule&#45;&gt;AppModule</title>
<path fill="none" stroke="#000000" d="M1290,-122.302C1290,-140.2699 1290,-165 1290,-165 1290,-165 909.8145,-165 909.8145,-165"/>
<polygon fill="#000000" stroke="#000000" points="909.8145,-161.5001 899.8145,-165 909.8145,-168.5001 909.8145,-161.5001"/>
</g>
<!-- AddressModule -->
<g id="node6" class="node">
<title>AddressModule</title>
<polygon fill="#8dd3c7" stroke="#000000" points="1218.9216,-122 1215.9216,-126 1194.9216,-126 1191.9216,-122 1113.0784,-122 1113.0784,-86 1218.9216,-86 1218.9216,-122"/>
<text text-anchor="middle" x="1166" y="-99.8" font-family="Times,serif" font-size="14.00" fill="#000000">AddressModule</text>
</g>
<!-- AddressModule&#45;&gt;AppModule -->
<g id="edge5" class="edge">
<title>AddressModule&#45;&gt;AppModule</title>
<path fill="none" stroke="#000000" d="M1166,-122.027C1166,-138.3976 1166,-160 1166,-160 1166,-160 909.8588,-160 909.8588,-160"/>
<polygon fill="#000000" stroke="#000000" points="909.8588,-156.5001 899.8588,-160 909.8588,-163.5001 909.8588,-156.5001"/>
</g>
<!-- CategoriesModule -->
<g id="node7" class="node">
<title>CategoriesModule</title>
<polygon fill="#8dd3c7" stroke="#000000" points="1095.9173,-122 1092.9173,-126 1071.9173,-126 1068.9173,-122 976.0827,-122 976.0827,-86 1095.9173,-86 1095.9173,-122"/>
<text text-anchor="middle" x="1036" y="-99.8" font-family="Times,serif" font-size="14.00" fill="#000000">CategoriesModule</text>
</g>
<!-- CategoriesModule&#45;&gt;AppModule -->
<g id="edge6" class="edge">
<title>CategoriesModule&#45;&gt;AppModule</title>
<path fill="none" stroke="#000000" d="M1011.8806,-122.1871C1011.8806,-137.1824 1011.8806,-156 1011.8806,-156 1011.8806,-156 910.0486,-156 910.0486,-156"/>
<polygon fill="#000000" stroke="#000000" points="910.0486,-152.5001 900.0486,-156 910.0485,-159.5001 910.0486,-152.5001"/>
</g>
<!-- FilterModule -->
<g id="node8" class="node">
<title>FilterModule</title>
<polygon fill="#8dd3c7" stroke="#000000" points="957.8795,-122 954.8795,-126 933.8795,-126 930.8795,-122 868.1205,-122 868.1205,-86 957.8795,-86 957.8795,-122"/>
<text text-anchor="middle" x="913" y="-99.8" font-family="Times,serif" font-size="14.00" fill="#000000">FilterModule</text>
</g>
<!-- FilterModule&#45;&gt;AppModule -->
<g id="edge7" class="edge">
<title>FilterModule&#45;&gt;AppModule</title>
<path fill="none" stroke="#000000" d="M883.9443,-122.1061C883.9443,-122.1061 883.9443,-140.991 883.9443,-140.991"/>
<polygon fill="#000000" stroke="#000000" points="880.4443,-140.9909 883.9443,-150.991 887.4443,-140.991 880.4443,-140.9909"/>
</g>
<!-- IndexModule -->
<g id="node9" class="node">
<title>IndexModule</title>
<polygon fill="#8dd3c7" stroke="#000000" points="849.926,-122 846.926,-126 825.926,-126 822.926,-122 758.074,-122 758.074,-86 849.926,-86 849.926,-122"/>
<text text-anchor="middle" x="804" y="-99.8" font-family="Times,serif" font-size="14.00" fill="#000000">IndexModule</text>
</g>
<!-- IndexModule&#45;&gt;AppModule -->
<g id="edge8" class="edge">
<title>IndexModule&#45;&gt;AppModule</title>
<path fill="none" stroke="#000000" d="M832.9422,-122.1061C832.9422,-122.1061 832.9422,-140.991 832.9422,-140.991"/>
<polygon fill="#000000" stroke="#000000" points="829.4422,-140.9909 832.9422,-150.991 836.4422,-140.991 829.4422,-140.9909"/>
</g>
<!-- LoginModule -->
<g id="node10" class="node">
<title>LoginModule</title>
<polygon fill="#8dd3c7" stroke="#000000" points="740.493,-122 737.493,-126 716.493,-126 713.493,-122 647.507,-122 647.507,-86 740.493,-86 740.493,-122"/>
<text text-anchor="middle" x="694" y="-99.8" font-family="Times,serif" font-size="14.00" fill="#000000">LoginModule</text>
</g>
<!-- LoginModule&#45;&gt;AppModule -->
<g id="edge9" class="edge">
<title>LoginModule&#45;&gt;AppModule</title>
<path fill="none" stroke="#000000" d="M698.4031,-122.1871C698.4031,-137.1824 698.4031,-156 698.4031,-156 698.4031,-156 806.0678,-156 806.0678,-156"/>
<polygon fill="#000000" stroke="#000000" points="806.0678,-159.5001 816.0678,-156 806.0677,-152.5001 806.0678,-159.5001"/>
</g>
<!-- MerchentModule -->
<g id="node11" class="node">
<title>MerchentModule</title>
<polygon fill="#8dd3c7" stroke="#000000" points="629.6896,-122 626.6896,-126 605.6896,-126 602.6896,-122 516.3104,-122 516.3104,-86 629.6896,-86 629.6896,-122"/>
<text text-anchor="middle" x="573" y="-99.8" font-family="Times,serif" font-size="14.00" fill="#000000">MerchentModule</text>
</g>
<!-- MerchentModule&#45;&gt;AppModule -->
<g id="edge10" class="edge">
<title>MerchentModule&#45;&gt;AppModule</title>
<path fill="none" stroke="#000000" d="M573,-122.027C573,-138.3976 573,-160 573,-160 573,-160 806.2533,-160 806.2533,-160"/>
<polygon fill="#000000" stroke="#000000" points="806.2534,-163.5001 816.2533,-160 806.2533,-156.5001 806.2534,-163.5001"/>
</g>
<!-- MyactivityModule -->
<g id="node12" class="node">
<title>MyactivityModule</title>
<polygon fill="#8dd3c7" stroke="#000000" points="498.486,-122 495.486,-126 474.486,-126 471.486,-122 377.514,-122 377.514,-86 498.486,-86 498.486,-122"/>
<text text-anchor="middle" x="438" y="-99.8" font-family="Times,serif" font-size="14.00" fill="#000000">MyactivityModule</text>
</g>
<!-- MyactivityModule&#45;&gt;AppModule -->
<g id="edge11" class="edge">
<title>MyactivityModule&#45;&gt;AppModule</title>
<path fill="none" stroke="#000000" d="M438,-122.302C438,-140.2699 438,-165 438,-165 438,-165 806.1933,-165 806.1933,-165"/>
<polygon fill="#000000" stroke="#000000" points="806.1933,-168.5001 816.1933,-165 806.1933,-161.5001 806.1933,-168.5001"/>
</g>
<!-- ProductModule -->
<g id="node13" class="node">
<title>ProductModule</title>
<polygon fill="#8dd3c7" stroke="#000000" points="359.5982,-122 356.5982,-126 335.5982,-126 332.5982,-122 256.4018,-122 256.4018,-86 359.5982,-86 359.5982,-122"/>
<text text-anchor="middle" x="308" y="-99.8" font-family="Times,serif" font-size="14.00" fill="#000000">ProductModule</text>
</g>
<!-- ProductModule&#45;&gt;AppModule -->
<g id="edge12" class="edge">
<title>ProductModule&#45;&gt;AppModule</title>
<path fill="none" stroke="#000000" d="M308,-122.1061C308,-141.3391 308,-169 308,-169 308,-169 806.2092,-169 806.2092,-169"/>
<polygon fill="#000000" stroke="#000000" points="806.2092,-172.5001 816.2092,-169 806.2091,-165.5001 806.2092,-172.5001"/>
</g>
<!-- SearchModule -->
<g id="node14" class="node">
<title>SearchModule</title>
<polygon fill="#8dd3c7" stroke="#000000" points="238.6375,-122 235.6375,-126 214.6375,-126 211.6375,-122 141.3625,-122 141.3625,-86 238.6375,-86 238.6375,-122"/>
<text text-anchor="middle" x="190" y="-99.8" font-family="Times,serif" font-size="14.00" fill="#000000">SearchModule</text>
</g>
<!-- SearchModule&#45;&gt;AppModule -->
<g id="edge13" class="edge">
<title>SearchModule&#45;&gt;AppModule</title>
<path fill="none" stroke="#000000" d="M190,-122.0267C190,-142.7672 190,-174 190,-174 190,-174 806.2136,-174 806.2136,-174"/>
<polygon fill="#000000" stroke="#000000" points="806.2136,-177.5001 816.2136,-174 806.2136,-170.5001 806.2136,-177.5001"/>
</g>
<!-- SignupModule -->
<g id="node15" class="node">
<title>SignupModule</title>
<polygon fill="#8dd3c7" stroke="#000000" points="123.7233,-122 120.7233,-126 99.7233,-126 96.7233,-122 24.2767,-122 24.2767,-86 123.7233,-86 123.7233,-122"/>
<text text-anchor="middle" x="74" y="-99.8" font-family="Times,serif" font-size="14.00" fill="#000000">SignupModule</text>
</g>
<!-- SignupModule&#45;&gt;AppModule -->
<g id="edge14" class="edge">
<title>SignupModule&#45;&gt;AppModule</title>
<path fill="none" stroke="#000000" d="M74,-122.2921C74,-144.2057 74,-178 74,-178 74,-178 806.1259,-178 806.1259,-178"/>
<polygon fill="#000000" stroke="#000000" points="806.126,-181.5001 816.1259,-178 806.1259,-174.5001 806.126,-181.5001"/>
</g>
</g>
</svg>
