<?xml version="1.0" encoding="UTF-8" standalone="no"?>
<!DOCTYPE svg PUBLIC "-//W3C//DTD SVG 1.1//EN"
 "http://www.w3.org/Graphics/SVG/1.1/DTD/svg11.dtd">
<!-- Generated by graphviz version 2.40.1 (20161225.0304)
 -->
<!-- Title: dependencies Pages: 1 -->
<svg width="746pt" height="284pt"
 viewBox="0.00 0.00 746.00 284.00" xmlns="http://www.w3.org/2000/svg" xmlns:xlink="http://www.w3.org/1999/xlink">
<g id="graph0" class="graph" transform="scale(1 1) rotate(0) translate(4 280)">
<title>dependencies</title>
<polygon fill="#ffffff" stroke="transparent" points="-4,4 -4,-280 742,-280 742,4 -4,4"/>
<text text-anchor="start" x="348.0091" y="-42.4" font-family="sans-serif" font-weight="bold" font-size="14.00" fill="#000000">Legend</text>
<polygon fill="#ffffb3" stroke="transparent" points="135,-10 135,-30 155,-30 155,-10 135,-10"/>
<text text-anchor="start" x="158.629" y="-15.4" font-family="sans-serif" font-size="14.00" fill="#000000"> &#160;Declarations</text>
<polygon fill="#8dd3c7" stroke="transparent" points="248,-10 248,-30 268,-30 268,-10 248,-10"/>
<text text-anchor="start" x="271.7251" y="-15.4" font-family="sans-serif" font-size="14.00" fill="#000000"> &#160;Module</text>
<polygon fill="#80b1d3" stroke="transparent" points="334,-10 334,-30 354,-30 354,-10 334,-10"/>
<text text-anchor="start" x="357.7812" y="-15.4" font-family="sans-serif" font-size="14.00" fill="#000000"> &#160;Bootstrap</text>
<polygon fill="#fdb462" stroke="transparent" points="431,-10 431,-30 451,-30 451,-10 431,-10"/>
<text text-anchor="start" x="454.6732" y="-15.4" font-family="sans-serif" font-size="14.00" fill="#000000"> &#160;Providers</text>
<polygon fill="#fb8072" stroke="transparent" points="527,-10 527,-30 547,-30 547,-10 527,-10"/>
<text text-anchor="start" x="550.7258" y="-15.4" font-family="sans-serif" font-size="14.00" fill="#000000"> &#160;Exports</text>
<g id="clust1" class="cluster">
<title>cluster_ProductModule</title>
<polygon fill="none" stroke="#000000" stroke-dasharray="1,5" points="8,-70 8,-268 730,-268 730,-70 8,-70"/>
</g>
<g id="clust2" class="cluster">
<title>cluster_ProductModule_declarations</title>
<polygon fill="none" stroke="#000000" points="396,-78 396,-130 722,-130 722,-78 396,-78"/>
</g>
<g id="clust6" class="cluster">
<title>cluster_ProductModule_exports</title>
<polygon fill="none" stroke="#000000" points="217,-208 217,-260 549,-260 549,-208 217,-208"/>
</g>
<g id="clust8" class="cluster">
<title>cluster_ProductModule_providers</title>
<polygon fill="none" stroke="#000000" points="16,-78 16,-130 388,-130 388,-78 16,-78"/>
</g>
<!-- ProductdetailsComponent -->
<g id="node1" class="node">
<title>ProductdetailsComponent</title>
<polygon fill="#ffffb3" stroke="#000000" points="713.927,-122 552.073,-122 552.073,-86 713.927,-86 713.927,-122"/>
<text text-anchor="middle" x="633" y="-99.8" font-family="Times,serif" font-size="14.00" fill="#000000">ProductdetailsComponent</text>
</g>
<!-- ProductModule -->
<g id="node3" class="node">
<title>ProductModule</title>
<polygon fill="#8dd3c7" stroke="#000000" points="426.5982,-187 423.5982,-191 402.5982,-191 399.5982,-187 323.4018,-187 323.4018,-151 426.5982,-151 426.5982,-187"/>
<text text-anchor="middle" x="375" y="-164.8" font-family="Times,serif" font-size="14.00" fill="#000000">ProductModule</text>
</g>
<!-- ProductdetailsComponent&#45;&gt;ProductModule -->
<g id="edge1" class="edge">
<title>ProductdetailsComponent&#45;&gt;ProductModule</title>
<path fill="none" stroke="#000000" d="M633,-122.1061C633,-141.3391 633,-169 633,-169 633,-169 436.5901,-169 436.5901,-169"/>
<polygon fill="#000000" stroke="#000000" points="436.5901,-165.5001 426.5901,-169 436.59,-172.5001 436.5901,-165.5001"/>
</g>
<!-- ProductsComponent -->
<g id="node2" class="node">
<title>ProductsComponent</title>
<polygon fill="#ffffb3" stroke="#000000" points="534.3258,-122 403.6742,-122 403.6742,-86 534.3258,-86 534.3258,-122"/>
<text text-anchor="middle" x="469" y="-99.8" font-family="Times,serif" font-size="14.00" fill="#000000">ProductsComponent</text>
</g>
<!-- ProductsComponent&#45;&gt;ProductModule -->
<g id="edge2" class="edge">
<title>ProductsComponent&#45;&gt;ProductModule</title>
<path fill="none" stroke="#000000" d="M415.1932,-122.1061C415.1932,-122.1061 415.1932,-140.991 415.1932,-140.991"/>
<polygon fill="#000000" stroke="#000000" points="411.6933,-140.9909 415.1932,-150.991 418.6933,-140.991 411.6933,-140.9909"/>
</g>
<!-- ProductdetailsComponent  -->
<g id="node4" class="node">
<title>ProductdetailsComponent </title>
<polygon fill="#fb8072" stroke="#000000" points="541.4264,-252 376.5736,-252 376.5736,-216 541.4264,-216 541.4264,-252"/>
<text text-anchor="middle" x="459" y="-229.8" font-family="Times,serif" font-size="14.00" fill="#000000">ProductdetailsComponent </text>
</g>
<!-- ProductModule&#45;&gt;ProductdetailsComponent  -->
<g id="edge3" class="edge">
<title>ProductModule&#45;&gt;ProductdetailsComponent </title>
<path fill="none" stroke="#000000" stroke-dasharray="5,2" d="M401.543,-187.1061C401.543,-187.1061 401.543,-205.991 401.543,-205.991"/>
<polygon fill="#000000" stroke="#000000" points="398.043,-205.9909 401.543,-215.991 405.043,-205.991 398.043,-205.9909"/>
</g>
<!-- ProductsComponent  -->
<g id="node5" class="node">
<title>ProductsComponent </title>
<polygon fill="#fb8072" stroke="#000000" points="358.8255,-252 225.1745,-252 225.1745,-216 358.8255,-216 358.8255,-252"/>
<text text-anchor="middle" x="292" y="-229.8" font-family="Times,serif" font-size="14.00" fill="#000000">ProductsComponent </text>
</g>
<!-- ProductModule&#45;&gt;ProductsComponent  -->
<g id="edge4" class="edge">
<title>ProductModule&#45;&gt;ProductsComponent </title>
<path fill="none" stroke="#000000" stroke-dasharray="5,2" d="M341.1818,-187.1061C341.1818,-187.1061 341.1818,-205.991 341.1818,-205.991"/>
<polygon fill="#000000" stroke="#000000" points="337.6819,-205.9909 341.1818,-215.991 344.6819,-205.991 337.6819,-205.9909"/>
</g>
<!-- ProductdetailsService -->
<g id="node6" class="node">
<title>ProductdetailsService</title>
<ellipse fill="#fdb462" stroke="#000000" cx="285" cy="-104" rx="95.4791" ry="18"/>
<text text-anchor="middle" x="285" y="-99.8" font-family="Times,serif" font-size="14.00" fill="#000000">ProductdetailsService</text>
</g>
<!-- ProductdetailsService&#45;&gt;ProductModule -->
<g id="edge5" class="edge">
<title>ProductdetailsService&#45;&gt;ProductModule</title>
<path fill="none" stroke="#000000" d="M351.8451,-116.8419C351.8451,-116.8419 351.8451,-140.5231 351.8451,-140.5231"/>
<polygon fill="#000000" stroke="#000000" points="348.3452,-140.523 351.8451,-150.5231 355.3452,-140.5231 348.3452,-140.523"/>
</g>
<!-- ProductsService -->
<g id="node7" class="node">
<title>ProductsService</title>
<ellipse fill="#fdb462" stroke="#000000" cx="98" cy="-104" rx="73.5734" ry="18"/>
<text text-anchor="middle" x="98" y="-99.8" font-family="Times,serif" font-size="14.00" fill="#000000">ProductsService</text>
</g>
<!-- ProductsService&#45;&gt;ProductModule -->
<g id="edge6" class="edge">
<title>ProductsService&#45;&gt;ProductModule</title>
<path fill="none" stroke="#000000" d="M98,-122.1061C98,-141.3391 98,-169 98,-169 98,-169 313.2234,-169 313.2234,-169"/>
<polygon fill="#000000" stroke="#000000" points="313.2234,-172.5001 323.2234,-169 313.2233,-165.5001 313.2234,-172.5001"/>
</g>
</g>
</svg>
