<?xml version="1.0" encoding="UTF-8" standalone="no"?>
<!DOCTYPE svg PUBLIC "-//W3C//DTD SVG 1.1//EN"
 "http://www.w3.org/Graphics/SVG/1.1/DTD/svg11.dtd">
<!-- Generated by graphviz version 2.40.1 (20161225.0304)
 -->
<!-- Title: dependencies Pages: 1 -->
<svg width="838pt" height="284pt"
 viewBox="0.00 0.00 838.00 284.00" xmlns="http://www.w3.org/2000/svg" xmlns:xlink="http://www.w3.org/1999/xlink">
<g id="graph0" class="graph" transform="scale(1 1) rotate(0) translate(4 280)">
<title>dependencies</title>
<polygon fill="#ffffff" stroke="transparent" points="-4,4 -4,-280 834,-280 834,4 -4,4"/>
<text text-anchor="start" x="394.0091" y="-42.4" font-family="sans-serif" font-weight="bold" font-size="14.00" fill="#000000">Legend</text>
<polygon fill="#ffffb3" stroke="transparent" points="181,-10 181,-30 201,-30 201,-10 181,-10"/>
<text text-anchor="start" x="204.629" y="-15.4" font-family="sans-serif" font-size="14.00" fill="#000000"> &#160;Declarations</text>
<polygon fill="#8dd3c7" stroke="transparent" points="294,-10 294,-30 314,-30 314,-10 294,-10"/>
<text text-anchor="start" x="317.7251" y="-15.4" font-family="sans-serif" font-size="14.00" fill="#000000"> &#160;Module</text>
<polygon fill="#80b1d3" stroke="transparent" points="380,-10 380,-30 400,-30 400,-10 380,-10"/>
<text text-anchor="start" x="403.7812" y="-15.4" font-family="sans-serif" font-size="14.00" fill="#000000"> &#160;Bootstrap</text>
<polygon fill="#fdb462" stroke="transparent" points="477,-10 477,-30 497,-30 497,-10 477,-10"/>
<text text-anchor="start" x="500.6732" y="-15.4" font-family="sans-serif" font-size="14.00" fill="#000000"> &#160;Providers</text>
<polygon fill="#fb8072" stroke="transparent" points="573,-10 573,-30 593,-30 593,-10 573,-10"/>
<text text-anchor="start" x="596.7258" y="-15.4" font-family="sans-serif" font-size="14.00" fill="#000000"> &#160;Exports</text>
<g id="clust1" class="cluster">
<title>cluster_MerchentModule</title>
<polygon fill="none" stroke="#000000" stroke-dasharray="1,5" points="8,-70 8,-268 822,-268 822,-70 8,-70"/>
</g>
<g id="clust2" class="cluster">
<title>cluster_MerchentModule_declarations</title>
<polygon fill="none" stroke="#000000" points="510,-78 510,-130 814,-130 814,-78 510,-78"/>
</g>
<g id="clust6" class="cluster">
<title>cluster_MerchentModule_exports</title>
<polygon fill="none" stroke="#000000" points="260,-208 260,-260 571,-260 571,-208 260,-208"/>
</g>
<g id="clust8" class="cluster">
<title>cluster_MerchentModule_providers</title>
<polygon fill="none" stroke="#000000" points="16,-78 16,-130 502,-130 502,-78 16,-78"/>
</g>
<!-- DashboardComponent -->
<g id="node1" class="node">
<title>DashboardComponent</title>
<polygon fill="#ffffb3" stroke="#000000" points="805.9734,-122 664.0266,-122 664.0266,-86 805.9734,-86 805.9734,-122"/>
<text text-anchor="middle" x="735" y="-99.8" font-family="Times,serif" font-size="14.00" fill="#000000">DashboardComponent</text>
</g>
<!-- MerchentModule -->
<g id="node3" class="node">
<title>MerchentModule</title>
<polygon fill="#8dd3c7" stroke="#000000" points="468.6896,-187 465.6896,-191 444.6896,-191 441.6896,-187 355.3104,-187 355.3104,-151 468.6896,-151 468.6896,-187"/>
<text text-anchor="middle" x="412" y="-164.8" font-family="Times,serif" font-size="14.00" fill="#000000">MerchentModule</text>
</g>
<!-- DashboardComponent&#45;&gt;MerchentModule -->
<g id="edge1" class="edge">
<title>DashboardComponent&#45;&gt;MerchentModule</title>
<path fill="none" stroke="#000000" d="M735,-122.2843C735,-143.3211 735,-175 735,-175 735,-175 478.6319,-175 478.6319,-175"/>
<polygon fill="#000000" stroke="#000000" points="478.632,-171.5001 468.6319,-175 478.6319,-178.5001 478.632,-171.5001"/>
</g>
<!-- RegisterComponent -->
<g id="node2" class="node">
<title>RegisterComponent</title>
<polygon fill="#ffffb3" stroke="#000000" points="645.9846,-122 518.0154,-122 518.0154,-86 645.9846,-86 645.9846,-122"/>
<text text-anchor="middle" x="582" y="-99.8" font-family="Times,serif" font-size="14.00" fill="#000000">RegisterComponent</text>
</g>
<!-- RegisterComponent&#45;&gt;MerchentModule -->
<g id="edge2" class="edge">
<title>RegisterComponent&#45;&gt;MerchentModule</title>
<path fill="none" stroke="#000000" d="M540.3722,-122.0225C540.3722,-139.3734 540.3722,-163 540.3722,-163 540.3722,-163 478.6796,-163 478.6796,-163"/>
<polygon fill="#000000" stroke="#000000" points="478.6796,-159.5001 468.6796,-163 478.6796,-166.5001 478.6796,-159.5001"/>
</g>
<!-- DashboardComponent  -->
<g id="node4" class="node">
<title>DashboardComponent </title>
<polygon fill="#fb8072" stroke="#000000" points="562.9742,-252 417.0258,-252 417.0258,-216 562.9742,-216 562.9742,-252"/>
<text text-anchor="middle" x="490" y="-229.8" font-family="Times,serif" font-size="14.00" fill="#000000">DashboardComponent </text>
</g>
<!-- MerchentModule&#45;&gt;DashboardComponent  -->
<g id="edge3" class="edge">
<title>MerchentModule&#45;&gt;DashboardComponent </title>
<path fill="none" stroke="#000000" stroke-dasharray="5,2" d="M442.929,-187.1061C442.929,-187.1061 442.929,-205.991 442.929,-205.991"/>
<polygon fill="#000000" stroke="#000000" points="439.4291,-205.9909 442.929,-215.991 446.4291,-205.991 439.4291,-205.9909"/>
</g>
<!-- RegisterComponent  -->
<g id="node5" class="node">
<title>RegisterComponent </title>
<polygon fill="#fb8072" stroke="#000000" points="399.9855,-252 268.0145,-252 268.0145,-216 399.9855,-216 399.9855,-252"/>
<text text-anchor="middle" x="334" y="-229.8" font-family="Times,serif" font-size="14.00" fill="#000000">RegisterComponent </text>
</g>
<!-- MerchentModule&#45;&gt;RegisterComponent  -->
<g id="edge4" class="edge">
<title>MerchentModule&#45;&gt;RegisterComponent </title>
<path fill="none" stroke="#000000" stroke-dasharray="5,2" d="M377.5738,-187.1061C377.5738,-187.1061 377.5738,-205.991 377.5738,-205.991"/>
<polygon fill="#000000" stroke="#000000" points="374.0739,-205.9909 377.5738,-215.991 381.0739,-205.991 374.0739,-205.9909"/>
</g>
<!-- DashboardService -->
<g id="node6" class="node">
<title>DashboardService</title>
<ellipse fill="#fdb462" stroke="#000000" cx="412" cy="-104" rx="81.6423" ry="18"/>
<text text-anchor="middle" x="412" y="-99.8" font-family="Times,serif" font-size="14.00" fill="#000000">DashboardService</text>
</g>
<!-- DashboardService&#45;&gt;MerchentModule -->
<g id="edge5" class="edge">
<title>DashboardService&#45;&gt;MerchentModule</title>
<path fill="none" stroke="#000000" d="M412,-122.1061C412,-122.1061 412,-140.991 412,-140.991"/>
<polygon fill="#000000" stroke="#000000" points="408.5001,-140.9909 412,-150.991 415.5001,-140.991 408.5001,-140.9909"/>
</g>
<!-- LoginService -->
<g id="node7" class="node">
<title>LoginService</title>
<ellipse fill="#fdb462" stroke="#000000" cx="249" cy="-104" rx="63.1209" ry="18"/>
<text text-anchor="middle" x="249" y="-99.8" font-family="Times,serif" font-size="14.00" fill="#000000">LoginService</text>
</g>
<!-- LoginService&#45;&gt;MerchentModule -->
<g id="edge6" class="edge">
<title>LoginService&#45;&gt;MerchentModule</title>
<path fill="none" stroke="#000000" d="M290.1591,-117.6841C290.1591,-135.1133 290.1591,-163 290.1591,-163 290.1591,-163 345.3599,-163 345.3599,-163"/>
<polygon fill="#000000" stroke="#000000" points="345.3599,-166.5001 355.3599,-163 345.3598,-159.5001 345.3599,-166.5001"/>
</g>
<!-- RegisterService -->
<g id="node8" class="node">
<title>RegisterService</title>
<ellipse fill="#fdb462" stroke="#000000" cx="96" cy="-104" rx="72.3439" ry="18"/>
<text text-anchor="middle" x="96" y="-99.8" font-family="Times,serif" font-size="14.00" fill="#000000">RegisterService</text>
</g>
<!-- RegisterService&#45;&gt;MerchentModule -->
<g id="edge7" class="edge">
<title>RegisterService&#45;&gt;MerchentModule</title>
<path fill="none" stroke="#000000" d="M96,-122.2843C96,-143.3211 96,-175 96,-175 96,-175 345.1406,-175 345.1406,-175"/>
<polygon fill="#000000" stroke="#000000" points="345.1406,-178.5001 355.1406,-175 345.1405,-171.5001 345.1406,-178.5001"/>
</g>
</g>
</svg>
